<svg xmlns="http://www.w3.org/2000/svg" width="88.36" height="57.31" viewBox="0 0 88.36 57.31" class="logo"><path d="M27.82,22.45a5,5,0,0,0-5-5h-2a5,5,0,0,0-5,5V56.59a.72.72,0,0,0,.72.72h1.33a.72.72,0,0,0,.72-.72V42.05L25,35.59v21a.73.73,0,0,0,.73.72H27.1a.72.72,0,0,0,.72-.72Zm-9.28,15.7V22.45a2.27,2.27,0,0,1,2.27-2.26h2A2.26,2.26,0,0,1,25,22.45v9.24Zm40-20v1.33a.68.68,0,0,1-.62.72h-4V56.56a.74.74,0,0,1-.73.75H51.82a.74.74,0,0,1-.72-.75V20.19h-4a.68.68,0,0,1-.62-.72V18.14a.68.68,0,0,1,.62-.72H57.9A.68.68,0,0,1,58.52,18.14Zm-14.93,0V56.59a.73.73,0,0,1-.73.72H41.53a.72.72,0,0,1-.72-.72V28.05l-6.5-6.46v35a.72.72,0,0,1-.72.72H32.26a.72.72,0,0,1-.72-.72V18.14a.72.72,0,0,1,.72-.72h1.48a.68.68,0,0,1,.51.21h0l6.56,6.52v-6a.72.72,0,0,1,.72-.72h1.33A.73.73,0,0,1,43.59,18.14Zm44.77,0V56.56a.74.74,0,0,1-.72.75H86.31a.74.74,0,0,1-.73-.75V42.06l-8-7.92a4.59,4.59,0,0,1-1.06-1.92,10.44,10.44,0,0,1-.25-2.55V18.17a.73.73,0,0,1,.72-.75h1.33a.74.74,0,0,1,.73.75V30.68a2.8,2.8,0,0,0,.78,1.8l5.71,5.67v-20a.74.74,0,0,1,.73-.75h1.33A.74.74,0,0,1,88.36,18.17ZM39.29.44v.8a.4.4,0,0,1-.37.44H36.18V14.15a.45.45,0,0,1-.44.46h-.81a.45.45,0,0,1-.43-.46V1.68H31.75a.41.41,0,0,1-.37-.44V.44A.41.41,0,0,1,31.75,0h7.17A.41.41,0,0,1,39.29.44Zm9.51,0V14.15a.45.45,0,0,1-.44.46h-.8a.45.45,0,0,1-.44-.46V6.4l-4.55,4.5v3.25a.45.45,0,0,1-.44.46h-.8a.45.45,0,0,1-.44-.46V.46A.45.45,0,0,1,41.33,0h.8a.45.45,0,0,1,.44.46V8.53L47.12,4V.46A.45.45,0,0,1,47.56,0h.8A.44.44,0,0,1,48.8.46Zm3.49,6h4.22A.45.45,0,0,1,57,6.9v.81a.44.44,0,0,1-.45.43H52.29v4.78h5.33a.45.45,0,0,1,.45.44v.81a.45.45,0,0,1-.45.44H51a.45.45,0,0,1-.44-.46V.46A.45.45,0,0,1,51,0h6.58a.45.45,0,0,1,.45.44v.8a.44.44,0,0,1-.45.44H52.29Zm20.34,33-2.92-2.9,2.42-2.4a4.7,4.7,0,0,0,1.06-1.92,11,11,0,0,0,.25-2.55V22.41a2.49,2.49,0,0,0-.08-.61c-.76-2.89-6.9-4.19-9.15-4.35l-.49,0c-.44,0-.79,0-1.06,0a6.2,6.2,0,0,0-.71,0h0a.69.69,0,0,0-.56.72V56.56a.74.74,0,0,0,.72.75h1.33a.74.74,0,0,0,.72-.75V42.06l3.59-3.57,2.42,2.4A1.56,1.56,0,0,1,70.66,42V56.56a.74.74,0,0,0,.73.75h1.33a.74.74,0,0,0,.72-.75V41.69A3.18,3.18,0,0,0,72.63,39.44Zm-8.47-1.28V20.23s4.55.26,6.34,2.29a.57.57,0,0,1,.16.39v7.68a2.86,2.86,0,0,1-.78,1.89ZM9.27,25.42v-3A2.26,2.26,0,0,0,7,20.19H5a2.27,2.27,0,0,0-2.27,2.26V52.27A2.27,2.27,0,0,0,5,54.54H7a2.27,2.27,0,0,0,2.26-2.27V40.71L7.65,42.32a.74.74,0,0,1-1,0l-.94-.94a.74.74,0,0,1,0-1l.44-.43v0L9.4,36.68l.39-.39h0l.41-.41,0,0a1.05,1.05,0,0,1,1.16-.21,1.08,1.08,0,0,1,.67,1V52.27a5,5,0,0,1-5,5H5a5,5,0,0,1-5-5V22.45a5,5,0,0,1,5-5H7a5,5,0,0,1,5,5v3a.72.72,0,0,1-.72.72H10A.73.73,0,0,1,9.27,25.42Z"></path></svg>